<?xml version="1.0" encoding="UTF-8"?>
<svg xmlns="http://www.w3.org/2000/svg" xmlns:xlink="http://www.w3.org/1999/xlink" width="202px" height="76px" viewBox="0 0 201 76" version="1.1">
<g id="surface1">
<path style=" stroke:none;fill-rule:evenodd;fill:rgb(0%,0%,0%);fill-opacity:1;" d="M 149.726562 40.019531 C 147.464844 40.019531 145.273438 39.710938 143.160156 39.09375 C 141.824219 38.703125 140.660156 38.242188 139.65625 37.703125 C 138.730469 37.203125 138.339844 36.070312 138.777344 35.105469 L 139.390625 33.742188 C 139.621094 33.222656 140.019531 32.859375 140.558594 32.671875 C 141.09375 32.488281 141.628906 32.523438 142.132812 32.78125 C 142.921875 33.195312 143.78125 33.542969 144.710938 33.84375 C 146.398438 34.394531 148.089844 34.667969 149.78125 34.667969 C 151.664062 34.667969 153.054688 34.386719 153.953125 33.824219 C 154.855469 33.261719 155.304688 32.515625 155.304688 31.582031 C 155.304688 30.898438 155.039062 30.328125 154.507812 29.878906 C 153.976562 29.425781 153.292969 29.0625 152.460938 28.789062 C 151.628906 28.515625 150.503906 28.210938 149.085938 27.882812 C 146.90625 27.363281 145.117188 26.84375 143.726562 26.320312 C 142.335938 25.800781 141.144531 24.964844 140.148438 23.8125 C 139.152344 22.664062 138.65625 21.128906 138.65625 19.210938 C 138.65625 17.539062 139.105469 16.023438 140.003906 14.667969 C 140.90625 13.3125 142.261719 12.234375 144.074219 11.441406 C 145.886719 10.644531 148.105469 10.246094 150.722656 10.246094 C 152.550781 10.246094 154.335938 10.46875 156.082031 10.90625 C 157.113281 11.167969 158.074219 11.488281 158.953125 11.886719 C 159.933594 12.324219 160.398438 13.46875 159.988281 14.476562 L 159.429688 15.851562 C 159.21875 16.375 158.851562 16.742188 158.332031 16.957031 C 157.8125 17.167969 157.296875 17.160156 156.777344 16.933594 C 154.746094 16.042969 152.707031 15.597656 150.675781 15.597656 C 148.820312 15.597656 147.449219 15.902344 146.5625 16.503906 C 145.675781 17.105469 145.234375 17.902344 145.234375 18.886719 C 145.234375 19.875 145.746094 20.609375 146.769531 21.085938 C 147.789062 21.566406 149.351562 22.039062 151.453125 22.503906 C 153.632812 23.027344 155.421875 23.546875 156.8125 24.066406 C 158.203125 24.589844 159.394531 25.410156 160.390625 26.535156 C 161.386719 27.65625 161.882812 29.179688 161.882812 31.097656 C 161.882812 32.742188 161.425781 34.242188 160.511719 35.597656 C 159.601562 36.957031 158.230469 38.03125 156.402344 38.824219 C 154.566406 39.621094 152.34375 40.019531 149.726562 40.019531 Z M 187.453125 73.261719 C 185.1875 73.261719 182.992188 72.953125 180.878906 72.335938 C 179.53125 71.9375 178.34375 71.472656 177.335938 70.925781 C 176.425781 70.4375 176.050781 69.328125 176.476562 68.382812 L 177.121094 66.945312 C 177.355469 66.429688 177.738281 66.082031 178.261719 65.894531 C 178.785156 65.710938 179.3125 65.753906 179.800781 66.003906 C 180.601562 66.421875 181.472656 66.78125 182.414062 67.089844 C 184.105469 67.636719 185.800781 67.910156 187.492188 67.910156 C 189.375 67.910156 190.773438 67.628906 191.671875 67.066406 C 192.574219 66.503906 193.023438 65.757812 193.023438 64.828125 C 193.023438 64.140625 192.757812 63.574219 192.226562 63.121094 C 191.691406 62.667969 191.011719 62.304688 190.179688 62.03125 C 189.347656 61.757812 188.222656 61.457031 186.796875 61.128906 C 184.617188 60.605469 182.824219 60.085938 181.433594 59.566406 C 180.039062 59.042969 178.847656 58.207031 177.84375 57.058594 C 176.851562 55.90625 176.351562 54.371094 176.351562 52.445312 C 176.351562 50.773438 176.800781 49.261719 177.703125 47.898438 C 178.601562 46.539062 179.960938 45.464844 181.78125 44.671875 C 183.59375 43.875 185.816406 43.476562 188.433594 43.476562 C 190.261719 43.476562 192.054688 43.695312 193.800781 44.136719 C 194.851562 44.402344 195.816406 44.730469 196.710938 45.136719 C 197.671875 45.566406 198.121094 46.691406 197.71875 47.671875 L 197.132812 49.125 C 196.929688 49.628906 196.566406 50 196.058594 50.207031 C 195.550781 50.410156 195.035156 50.40625 194.535156 50.183594 C 192.492188 49.28125 190.4375 48.828125 188.394531 48.828125 C 186.539062 48.828125 185.167969 49.128906 184.273438 49.734375 C 183.386719 50.335938 182.945312 51.132812 182.945312 52.117188 C 182.945312 53.105469 183.457031 53.835938 184.480469 54.316406 C 185.503906 54.796875 187.0625 55.269531 189.171875 55.734375 C 191.351562 56.253906 193.144531 56.777344 194.535156 57.296875 C 195.925781 57.816406 197.121094 58.640625 198.121094 59.765625 C 199.117188 60.886719 199.617188 62.410156 199.617188 64.332031 C 199.617188 65.976562 199.160156 67.480469 198.246094 68.84375 C 197.332031 70.199219 195.960938 71.273438 194.128906 72.070312 C 192.300781 72.863281 190.070312 73.261719 187.453125 73.261719 Z M 159.300781 61.167969 L 153.484375 61.167969 L 153.484375 71.171875 C 153.484375 72.054688 152.769531 72.773438 151.886719 72.773438 L 148.488281 72.773438 C 147.605469 72.773438 146.890625 72.054688 146.890625 71.171875 L 146.890625 45.566406 C 146.890625 44.683594 147.605469 43.964844 148.488281 43.964844 L 151.886719 43.964844 C 152.769531 43.964844 153.484375 44.683594 153.484375 45.566406 L 153.484375 55.613281 L 159.464844 55.613281 L 166.527344 44.699219 C 166.828125 44.230469 167.304688 43.972656 167.863281 43.972656 L 171 43.972656 C 171.605469 43.972656 172.125 44.285156 172.410156 44.820312 C 172.699219 45.355469 172.664062 45.964844 172.324219 46.472656 L 164.632812 57.878906 L 172.691406 70.300781 C 173.019531 70.808594 173.046875 71.410156 172.757812 71.9375 C 172.472656 72.464844 171.960938 72.773438 171.363281 72.773438 L 167.636719 72.773438 C 167.078125 72.773438 166.601562 72.515625 166.300781 72.042969 Z M 94.460938 67.753906 C 96.203125 67.753906 97.519531 67.464844 98.414062 66.890625 C 99.300781 66.3125 99.742188 65.421875 99.742188 64.21875 C 99.742188 61.832031 97.984375 60.632812 94.460938 60.632812 L 86.71875 60.632812 L 86.71875 67.753906 Z M 86.71875 48.988281 L 86.71875 55.777344 L 93.3125 55.777344 C 94.949219 55.777344 96.191406 55.488281 97.042969 54.914062 C 97.886719 54.335938 98.3125 53.488281 98.3125 52.363281 C 98.3125 51.242188 97.886719 50.398438 97.042969 49.835938 C 96.199219 49.273438 94.957031 48.992188 93.3125 48.992188 L 86.71875 48.992188 Z M 101.175781 57.789062 C 102.8125 58.3125 104.09375 59.179688 105.027344 60.402344 C 105.953125 61.621094 106.417969 63.121094 106.417969 64.910156 C 106.417969 67.429688 105.441406 69.375 103.492188 70.734375 C 101.542969 72.089844 98.691406 72.769531 94.957031 72.769531 L 82.089844 72.769531 C 81.011719 72.769531 80.132812 71.882812 80.132812 70.800781 L 80.132812 45.929688 C 80.132812 44.847656 81.011719 43.964844 82.089844 43.964844 L 94.136719 43.964844 C 97.636719 43.964844 100.316406 44.636719 102.183594 45.980469 C 104.050781 47.320312 104.988281 49.144531 104.988281 51.453125 C 104.988281 52.851562 104.652344 54.097656 103.984375 55.199219 C 103.308594 56.296875 102.375 57.160156 101.175781 57.789062 Z M 125.339844 67.589844 C 127.03125 67.589844 128.558594 67.199219 129.925781 66.417969 C 131.289062 65.636719 132.363281 64.546875 133.136719 63.140625 C 133.914062 61.742188 134.304688 60.15625 134.304688 58.367188 C 134.304688 56.585938 133.914062 54.996094 133.136719 53.589844 C 132.363281 52.191406 131.289062 51.101562 129.925781 50.316406 C 128.5625 49.535156 127.035156 49.144531 125.339844 49.144531 C 123.648438 49.144531 122.113281 49.535156 120.75 50.316406 C 119.386719 51.097656 118.316406 52.1875 117.539062 53.589844 C 116.761719 54.988281 116.371094 56.578125 116.371094 58.367188 C 116.371094 60.148438 116.761719 61.742188 117.539062 63.140625 C 118.316406 64.539062 119.386719 65.628906 120.75 66.417969 C 122.113281 67.199219 123.648438 67.589844 125.339844 67.589844 Z M 125.339844 73.261719 C 122.367188 73.261719 119.679688 72.617188 117.292969 71.328125 C 114.90625 70.039062 113.03125 68.257812 111.683594 66 C 110.332031 63.738281 109.65625 61.1875 109.65625 58.367188 C 109.65625 55.542969 110.332031 52.996094 111.683594 50.734375 C 113.03125 48.472656 114.90625 46.691406 117.292969 45.402344 C 119.679688 44.113281 122.367188 43.472656 125.339844 43.472656 C 128.3125 43.472656 130.992188 44.113281 133.363281 45.402344 C 135.738281 46.691406 137.613281 48.464844 138.976562 50.734375 C 140.339844 52.996094 141.019531 55.542969 141.019531 58.367188 C 141.019531 61.1875 140.339844 63.738281 138.976562 66 C 137.613281 68.257812 135.738281 70.039062 133.363281 71.328125 C 130.992188 72.617188 128.3125 73.261719 125.339844 73.261719 Z M 120.722656 40.019531 C 116.625 40.019531 113.441406 38.878906 111.164062 36.597656 C 108.886719 34.324219 107.742188 31.070312 107.742188 26.84375 L 107.742188 12.6875 C 107.742188 11.605469 108.621094 10.722656 109.699219 10.722656 L 112.417969 10.722656 C 113.496094 10.722656 114.375 11.605469 114.375 12.6875 L 114.375 26.601562 C 114.375 31.761719 116.503906 34.335938 120.761719 34.335938 C 122.835938 34.335938 124.425781 33.714844 125.515625 32.46875 C 126.605469 31.21875 127.152344 29.269531 127.152344 26.601562 L 127.152344 12.6875 C 127.152344 11.605469 128.03125 10.722656 129.109375 10.722656 L 131.746094 10.722656 C 132.824219 10.722656 133.703125 11.605469 133.703125 12.6875 L 133.703125 26.847656 C 133.703125 31.078125 132.566406 34.324219 130.289062 36.605469 C 128.003906 38.878906 124.820312 40.019531 120.722656 40.019531 Z M 169.910156 10.722656 L 172.628906 10.722656 C 173.707031 10.722656 174.585938 11.605469 174.585938 12.6875 L 174.585938 37.558594 C 174.585938 38.640625 173.707031 39.523438 172.628906 39.523438 L 169.910156 39.523438 C 168.832031 39.523438 167.953125 38.640625 167.953125 37.558594 L 167.953125 12.6875 C 167.953125 11.605469 168.824219 10.722656 169.910156 10.722656 Z M 91.316406 40.019531 C 89.050781 40.019531 86.863281 39.710938 84.75 39.09375 C 83.414062 38.703125 82.246094 38.242188 81.246094 37.703125 C 80.316406 37.203125 79.929688 36.070312 80.367188 35.105469 L 80.980469 33.742188 C 81.210938 33.222656 81.605469 32.859375 82.136719 32.671875 C 82.675781 32.488281 83.210938 32.523438 83.714844 32.78125 C 84.503906 33.195312 85.363281 33.542969 86.289062 33.84375 C 87.980469 34.394531 89.671875 34.667969 91.363281 34.667969 C 93.246094 34.667969 94.636719 34.386719 95.535156 33.824219 C 96.4375 33.261719 96.886719 32.515625 96.886719 31.582031 C 96.886719 30.898438 96.621094 30.328125 96.089844 29.878906 C 95.558594 29.425781 94.875 29.0625 94.042969 28.789062 C 93.210938 28.515625 92.085938 28.210938 90.667969 27.882812 C 88.488281 27.363281 86.699219 26.84375 85.308594 26.320312 C 83.917969 25.800781 82.726562 24.964844 81.730469 23.8125 C 80.734375 22.664062 80.238281 21.128906 80.238281 19.210938 C 80.238281 17.539062 80.6875 16.023438 81.585938 14.667969 C 82.488281 13.3125 83.84375 12.234375 85.65625 11.441406 C 87.46875 10.644531 89.6875 10.246094 92.304688 10.246094 C 94.132812 10.246094 95.917969 10.46875 97.664062 10.90625 C 98.691406 11.167969 99.65625 11.488281 100.535156 11.886719 C 101.515625 12.324219 101.980469 13.46875 101.570312 14.476562 L 101.011719 15.851562 C 100.800781 16.375 100.433594 16.742188 99.914062 16.957031 C 99.394531 17.167969 98.878906 17.160156 98.359375 16.933594 C 96.328125 16.042969 94.289062 15.597656 92.257812 15.597656 C 90.402344 15.597656 89.03125 15.902344 88.144531 16.503906 C 87.257812 17.105469 86.816406 17.902344 86.816406 18.886719 C 86.816406 19.875 87.328125 20.609375 88.351562 21.085938 C 89.371094 21.566406 90.933594 22.039062 93.035156 22.503906 C 95.214844 23.027344 97.003906 23.546875 98.394531 24.066406 C 99.785156 24.589844 100.976562 25.410156 101.972656 26.535156 C 102.96875 27.65625 103.464844 29.179688 103.464844 31.097656 C 103.464844 32.742188 103.007812 34.242188 102.09375 35.597656 C 101.183594 36.957031 99.8125 38.03125 97.984375 38.824219 C 96.15625 39.621094 93.933594 40.019531 91.316406 40.019531 Z M 157.351562 3.664062 L 153.59375 7.78125 C 153.230469 8.179688 152.769531 8.382812 152.230469 8.382812 L 148.214844 8.382812 C 147.675781 8.382812 147.210938 8.179688 146.851562 7.78125 L 143.09375 3.664062 C 142.894531 3.453125 142.847656 3.15625 142.964844 2.890625 C 143.078125 2.621094 143.324219 2.464844 143.617188 2.464844 L 145.976562 2.464844 C 146.441406 2.464844 146.835938 2.617188 147.191406 2.917969 L 150.230469 5.546875 L 153.273438 2.917969 C 153.621094 2.617188 154.023438 2.464844 154.488281 2.464844 L 156.84375 2.464844 C 157.132812 2.464844 157.382812 2.628906 157.5 2.890625 C 157.59375 3.15625 157.546875 3.453125 157.351562 3.664062 Z M 157.351562 3.664062 "/>
<path style=" stroke:none;fill-rule:evenodd;fill:rgb(0%,0%,0%);fill-opacity:1;" d="M 64.445312 53.691406 C 64.480469 49.417969 63.09375 45.183594 60.574219 41.746094 C 63.09375 38.304688 64.480469 34.070312 64.445312 29.796875 C 64.445312 17.75 56.285156 10.21875 43.863281 10.21875 L 10.582031 10.21875 C 5.488281 10.21875 1.710938 14.332031 1.710938 19.347656 C 1.710938 34.277344 1.710938 49.207031 1.710938 64.136719 C 1.710938 69.148438 5.488281 73.261719 10.582031 73.261719 L 43.863281 73.261719 C 56.277344 73.261719 64.445312 65.738281 64.445312 53.691406 Z M 64.445312 53.691406 "/>
<path style=" stroke:none;fill-rule:evenodd;fill:rgb(100%,76.470588%,0%);fill-opacity:1;" d="M 57.550781 43.695312 C 59.625 46.429688 60.859375 49.882812 60.859375 53.644531 C 60.859375 61.796875 55.035156 68.527344 47.503906 69.539062 C 46.40625 63.765625 43.675781 58.597656 39.84375 54.597656 C 34.785156 49.300781 27.789062 46.035156 20.074219 46.035156 C 14.589844 46.035156 9.476562 47.683594 5.160156 50.535156 L 5.160156 43.210938 C 7.566406 40.660156 10.976562 38.113281 14.019531 36.421875 C 19.144531 33.570312 24.996094 31.953125 31.199219 31.953125 C 40.015625 31.953125 52.042969 36.421875 57.550781 43.695312 Z M 10.582031 13.703125 L 27.683594 13.703125 C 20.011719 16.757812 13.0625 21.613281 7.207031 27.746094 C 6.511719 28.480469 5.828125 29.226562 5.175781 29.992188 L 5.175781 19.359375 C 5.167969 16.25 7.609375 13.703125 10.582031 13.703125 Z M 60.867188 29.726562 C 60.867188 24.953125 59.011719 20.96875 55.976562 17.988281 C 54.675781 16.710938 53.167969 15.703125 51.421875 14.921875 C 50.660156 14.578125 49.855469 14.3125 48.988281 14.117188 C 46.582031 13.589844 45.039062 13.644531 42.59375 13.84375 C 31.363281 14.742188 21.285156 19.710938 13.179688 26.953125 C 10.351562 29.480469 7.398438 32.5625 5.167969 35.613281 L 5.167969 38.304688 C 12.328125 31.925781 21.519531 28.363281 31.207031 28.363281 C 40.117188 28.363281 51.335938 32.234375 58.097656 38.90625 C 59.84375 36.304688 60.867188 33.140625 60.867188 29.726562 Z M 43.886719 69.664062 C 42.886719 64.945312 40.617188 60.566406 37.273438 57.078125 C 32.753906 52.351562 26.636719 49.617188 20.078125 49.617188 C 14.589844 49.617188 9.59375 51.664062 5.167969 54.851562 L 5.167969 64.003906 C 5.167969 67.117188 7.601562 69.664062 10.582031 69.664062 Z M 43.886719 69.664062 "/>
</g>
</svg>
